HIERARCHY
ROOT Pelvis
{
	OFFSET 0.000000 0.000000 0.000000
	CHANNELS 6 Xposition Yposition Zposition Xrotation Yrotation Zrotation
	JOINT LeftUpLeg_virtual
	{
		OFFSET 0.000000 0.000000 0.000000
		CHANNELS 3 Xrotation Yrotation Zrotation
		JOINT LeftUpLeg
		{
			OFFSET 18.735201 -5.666702 -4.541200
			CHANNELS 3 Xrotation Yrotation Zrotation
			JOINT LeftLeg
			{
				OFFSET -0.021200 -31.938179 0.493100
				CHANNELS 3 Xrotation Yrotation Zrotation
				JOINT LeftFoot
				{
					OFFSET 0.021200 -31.938179 -4.336299
					CHANNELS 3 Xrotation Yrotation Zrotation
					JOINT LeftToeBase
					{
						OFFSET 0.943001 -26.722000 15.023500
						CHANNELS 3 Xrotation Yrotation Zrotation
						End Site
						{
							OFFSET 0 0 0
						}
					}
				}
			}
		}
	}
	JOINT RightUpLeg_virtual
	{
		OFFSET 0.000000 0.000000 0.000000
		CHANNELS 3 Xrotation Yrotation Zrotation
		JOINT RightUpLeg
		{
			OFFSET -18.735201 -5.666702 -4.541200
			CHANNELS 3 Xrotation Yrotation Zrotation
			JOINT RightLeg
			{
				OFFSET 0.018946 -31.938133 0.493100
				CHANNELS 3 Xrotation Yrotation Zrotation
				JOINT RightFoot
				{
					OFFSET -0.018946 -31.938126 -4.336299
					CHANNELS 3 Xrotation Yrotation Zrotation
					JOINT RightToeBase
					{
						OFFSET -0.943001 -26.722004 15.023500
						CHANNELS 3 Xrotation Yrotation Zrotation
						End Site
						{
							OFFSET 0 0 0
						}
					}
				}
			}
		}
	}
	JOINT Hips_virtual
	{
		OFFSET 0.000000 0.000000 0.000000
		CHANNELS 3 Xrotation Yrotation Zrotation
		JOINT Hips
		{
			OFFSET -0.000000 -0.000000 -0.000000
			CHANNELS 3 Xrotation Yrotation Zrotation
			JOINT Spine
			{
				OFFSET 0.000000 10.199997 -0.299500
				CHANNELS 3 Xrotation Yrotation Zrotation
				JOINT Spine1
				{
					OFFSET 0.000000 11.900002 -1.516600
					CHANNELS 3 Xrotation Yrotation Zrotation
					JOINT Spine2
					{
						OFFSET 0.000000 13.600006 -2.842500
						CHANNELS 3 Xrotation Yrotation Zrotation
						JOINT Neck_virtual
						{
							OFFSET 0.000000 0.000000 0.000000
							CHANNELS 3 Xrotation Yrotation Zrotation
							JOINT Neck
							{
								OFFSET 0.000000 9.624100 -2.890100
								CHANNELS 3 Xrotation Yrotation Zrotation
								JOINT Head
								{
									OFFSET 0.000000 14.068802 -1.351900
									CHANNELS 3 Xrotation Yrotation Zrotation
									End Site
									{
										OFFSET 0 0 0
									}
								}
							}
						}
						JOINT LeftShoulder_virtual
						{
							OFFSET 0.000000 0.000000 0.000000
							CHANNELS 3 Xrotation Yrotation Zrotation
							JOINT LeftShoulder
							{
								OFFSET 15.263000 10.923401 -0.547700
								CHANNELS 3 Xrotation Yrotation Zrotation
								JOINT LeftArm
								{
									OFFSET 25.438599 -2.830597 -13.032500
									CHANNELS 3 Xrotation Yrotation Zrotation
									JOINT LeftForeArm
									{
										OFFSET 29.960503 0.000000 0.000000
										CHANNELS 3 Xrotation Yrotation Zrotation
										JOINT LeftHand
										{
											OFFSET 27.849251 0.000000 0.000000
											CHANNELS 3 Xrotation Yrotation Zrotation
											End Site
											{
												OFFSET 0 0 0
											}
										}
									}
								}
							}
						}
						JOINT RightShoulder_virtual
						{
							OFFSET 0.000000 0.000000 0.000000
							CHANNELS 3 Xrotation Yrotation Zrotation
							JOINT RightShoulder
							{
								OFFSET -15.263000 10.923401 -0.547700
								CHANNELS 3 Xrotation Yrotation Zrotation
								JOINT RightArm
								{
									OFFSET -25.438599 -2.830597 -13.032500
									CHANNELS 3 Xrotation Yrotation Zrotation
									JOINT RightForeArm
									{
										OFFSET -29.960503 0.000000 0.000000
										CHANNELS 3 Xrotation Yrotation Zrotation
										JOINT RightHand
										{
											OFFSET -27.849251 0.000000 0.000000
											CHANNELS 3 Xrotation Yrotation Zrotation
											End Site
											{
												OFFSET 0 0 0
											}
										}
									}
								}
							}
						}
					}
				}
			}
		}
	}
}
MOTION
Frames: 12
Frame Time: 0.03333333
-3.406495 75.291718 2.039368 0.000000 0.000000 0.000000 -14.637430 -74.262393 -14.357879 -37.778473 8.507555 58.633896 38.964901 -3.636048 -11.577456 5.265618 0.580467 -29.692461 0.000000 0.000000 0.000000 -6.984878 -76.436872 -4.869721 -42.624400 7.301453 -32.971471 63.880055 13.676532 -6.196144 -21.695707 -7.219760 28.625253 0.000000 0.000000 0.000000 -13.242691 -76.243585 -12.359398 0.209641 -0.634356 0.324764 5.615291 -0.384163 -1.124764 5.598300 -0.842652 -3.000913 0.000000 0.000000 0.000000 5.334645 -0.744871 -2.930111 0.816602 4.989927 1.125893 0.000000 0.000000 0.000000 4.821583 0.437054 -3.162683 -0.373599 -9.354068 -19.651860 -50.205708 -28.140801 -7.651220 -3.111571 -35.501800 -1.941397 0.000000 0.000000 0.000000 4.795603 0.267741 -3.360183 -0.232601 13.752020 7.115118 21.014499 78.308720 -4.737054 0.524075 65.137137 -0.495316 0.000000 0.000000 0.000000 
-3.280405 75.462952 1.839327 0.000000 0.000000 0.000000 -15.587569 -74.879842 -15.313364 -36.987373 9.127222 58.600250 38.550397 -3.317866 -11.758744 4.997909 0.342096 -29.724188 0.000000 0.000000 0.000000 -7.424659 -76.805197 -5.205372 -42.655214 7.547866 -32.860327 63.400425 13.571372 -5.918524 -21.399975 -6.804963 28.646194 0.000000 0.000000 0.000000 -14.911744 -76.421081 -14.050304 0.117701 -0.927142 0.238106 5.521869 -0.269424 -1.165059 5.504880 -0.771638 -2.963612 0.000000 0.000000 0.000000 5.191366 -0.692662 -2.888982 0.601514 4.990656 1.111000 0.000000 0.000000 0.000000 4.974381 0.536985 -3.148408 -0.443859 -9.121140 -19.368338 -49.629237 -25.909103 -8.025557 -3.220640 -36.149487 -2.380637 0.000000 0.000000 0.000000 4.972128 0.280486 -3.284539 -0.094952 14.144896 7.101000 19.423419 77.596809 -2.929221 0.524075 65.137137 -0.495316 0.000000 0.000000 0.000000 
-3.123297 75.968025 1.664286 0.000000 0.000000 0.000000 -18.405359 -75.839060 -18.151482 -35.234419 10.265761 58.397120 37.508926 -1.997329 -11.905479 4.703923 0.098570 -29.254656 0.000000 0.000000 0.000000 -8.879992 -77.334209 -6.586418 -42.592745 7.715878 -32.550171 62.706587 13.137091 -5.646539 -20.868164 -5.912002 28.421886 0.000000 0.000000 0.000000 -17.272302 -76.642284 -16.464910 0.042666 -1.220612 0.127405 5.305075 -0.344148 -1.217059 5.447199 -0.662445 -2.827198 0.000000 0.000000 0.000000 5.039390 -0.590578 -2.752166 0.248079 4.994992 1.150054 0.000000 0.000000 0.000000 5.199029 0.440286 -2.937793 -0.807761 -9.139115 -19.314756 -48.000534 -22.331263 -9.315797 -2.485214 -38.222200 -3.111996 0.000000 0.000000 0.000000 5.223225 0.208020 -3.114656 -0.029302 14.668507 7.200630 14.233551 76.384027 3.047414 0.524075 65.137137 -0.495316 0.000000 0.000000 0.000000 
-3.038170 76.686150 1.531534 0.000000 0.000000 0.000000 -22.954917 -76.673689 -22.637166 -33.139620 11.660811 57.991462 36.227457 -0.168142 -12.004559 4.605162 -0.031976 -28.606717 0.000000 0.000000 0.000000 -11.130741 -77.958618 -8.876901 -42.191940 7.679947 -32.043819 61.682605 12.478475 -5.487612 -20.138651 -4.801421 28.085359 0.000000 0.000000 0.000000 -20.022624 -76.847169 -19.317288 0.012421 -1.443420 0.051656 5.020204 -0.567069 -1.243263 5.454159 -0.579895 -2.591104 0.000000 0.000000 0.000000 4.945704 -0.512978 -2.515155 -0.154394 5.001726 1.221369 0.000000 0.000000 0.000000 5.425405 0.205725 -2.591669 -1.363401 -9.415323 -19.481962 -45.026277 -18.709772 -11.351990 -1.028265 -41.376453 -3.857694 0.000000 0.000000 0.000000 5.546643 0.041650 -2.854669 -0.040223 15.097114 7.494837 8.768661 74.426604 9.867868 0.524075 65.137137 -0.495316 0.000000 0.000000 0.000000 
-2.962024 77.506844 1.445704 0.000000 0.000000 0.000000 -28.205739 -77.313869 -27.847456 -31.356053 12.983314 57.495849 34.952431 1.506273 -12.008694 5.035469 -0.120206 -28.388940 0.000000 0.000000 0.000000 -13.993110 -78.365595 -11.859143 -41.281032 7.371348 -31.418768 60.282553 11.671239 -5.471582 -19.267352 -3.822956 27.803858 0.000000 0.000000 0.000000 -22.562005 -76.945776 -21.930634 0.029447 -1.618099 -0.006369 4.839515 -0.861403 -1.196837 5.519896 -0.593101 -2.258688 0.000000 0.000000 0.000000 4.972488 -0.539686 -2.186113 -0.431386 5.021372 1.275485 0.000000 0.000000 0.000000 5.643761 -0.103872 -2.211971 -1.892310 -9.776673 -19.963461 -40.304260 -16.601371 -14.035603 0.687161 -45.844984 -4.271289 0.000000 0.000000 0.000000 5.871281 -0.240809 -2.500977 -0.115087 15.208453 8.176770 4.400733 71.664865 15.698952 0.524075 65.137137 -0.495316 0.000000 0.000000 0.000000 
-2.848089 78.362175 1.463470 0.000000 0.000000 0.000000 -32.751747 -77.678416 -32.438085 -30.314603 13.969421 57.141318 33.680950 2.495913 -11.749541 6.232090 -0.205855 -29.087559 0.000000 0.000000 0.000000 -16.630809 -78.289957 -14.581909 -39.713175 6.961071 -30.855458 58.609963 10.810602 -5.612207 -18.429782 -3.356828 27.705233 0.000000 0.000000 0.000000 -24.238451 -76.852182 -23.653136 0.058660 -1.823799 -0.077920 4.759764 -1.164770 -1.033684 5.652591 -0.758527 -1.856027 0.000000 0.000000 0.000000 5.175359 -0.732671 -1.796536 -0.542464 5.059094 1.275687 0.000000 0.000000 0.000000 5.858428 -0.482701 -1.884570 -2.300930 -10.308991 -20.680238 -33.862114 -17.983075 -17.278210 2.211947 -51.879665 -4.073232 0.000000 0.000000 0.000000 6.085838 -0.666416 -2.052739 -0.252799 14.885829 9.465763 1.747333 68.272201 19.595948 0.524075 65.137137 -0.495316 0.000000 0.000000 0.000000 
-2.790528 79.163170 1.568312 0.000000 0.000000 0.000000 -34.622833 -77.510845 -34.269620 -29.789115 14.547087 56.815754 32.136180 2.739216 -11.206383 8.243056 -0.374465 -30.808989 0.000000 0.000000 0.000000 -17.809365 -77.809399 -15.853433 -37.571262 6.724566 -30.433636 56.592448 9.940408 -5.819571 -17.690979 -3.598409 28.009600 0.000000 0.000000 0.000000 -24.631202 -76.525180 -24.063702 0.058796 -1.930443 -0.123695 4.758297 -1.387223 -0.822920 5.839256 -1.120108 -1.413678 0.000000 0.000000 0.000000 5.520223 -1.131278 -1.369539 -0.544198 5.098416 1.223679 0.000000 0.000000 0.000000 6.054379 -0.935166 -1.660626 -2.497193 -11.008761 -21.083968 -27.154302 -23.836645 -20.276655 3.111044 -59.482150 -3.139059 0.000000 0.000000 0.000000 6.147146 -1.235549 -1.545213 -0.448966 14.311094 11.347467 -0.000087 64.441749 22.216493 0.524075 65.137137 -0.495316 0.000000 0.000000 0.000000 
-2.770942 79.850044 1.711712 0.000000 0.000000 0.000000 -33.227074 -76.853910 -32.809732 -29.546623 14.813307 56.448310 30.095869 2.525018 -10.426945 10.874860 -0.780997 -33.438328 0.000000 0.000000 0.000000 -16.993914 -76.825080 -15.020964 -35.002104 6.738143 -30.221190 54.467805 9.087294 -5.955291 -16.993260 -4.510521 28.774959 0.000000 0.000000 0.000000 -23.670338 -76.241427 -23.057604 -0.008269 -1.988207 -0.223671 4.795592 -1.532780 -0.620541 6.034183 -1.707997 -0.948581 0.000000 0.000000 0.000000 5.931539 -1.751843 -0.917146 -0.535874 5.144723 1.136119 0.000000 0.000000 0.000000 6.279535 -1.537133 -1.479053 -2.450253 -12.003787 -20.337249 -22.351982 -34.125558 -22.111303 3.545034 -67.508183 -1.321120 0.000000 0.000000 0.000000 6.075461 -1.947306 -1.046873 -0.653028 13.795150 13.525902 -1.867082 60.049445 24.330179 0.524075 65.137137 -0.495316 0.000000 0.000000 0.000000 
-2.783538 80.395927 2.042583 0.000000 0.000000 0.000000 -29.949768 -75.843035 -29.380796 -29.421501 15.209861 56.153902 27.677525 2.472902 -9.557824 13.514168 -1.329155 -36.373571 0.000000 0.000000 0.000000 -14.892637 -75.985049 -12.744364 -32.085131 7.055064 -30.236059 52.051403 8.220369 -5.886913 -16.200655 -5.810725 29.893242 0.000000 0.000000 0.000000 -21.553299 -75.984803 -20.872443 -0.048752 -1.735150 -0.289809 4.652632 -1.640531 -0.444495 6.187214 -2.518358 -0.459518 0.000000 0.000000 0.000000 6.297798 -2.578908 -0.429967 -0.665896 5.210678 1.081979 0.000000 0.000000 0.000000 6.625573 -2.325580 -1.167761 -2.125838 -13.231637 -17.727298 -21.649816 -47.453409 -22.835202 4.250542 -74.604654 1.591263 0.000000 0.000000 0.000000 5.961077 -2.782861 -0.607968 -0.851171 13.431401 15.790796 -4.039904 54.897902 26.275868 0.524075 65.137137 -0.495316 0.000000 0.000000 0.000000 
-2.868100 80.823830 2.452276 0.000000 0.000000 0.000000 -26.166610 -74.685414 -25.255031 -29.176854 16.071560 56.048932 25.401497 3.156869 -8.816023 15.206308 -1.770404 -38.863906 0.000000 0.000000 0.000000 -12.035236 -75.546653 -9.605611 -29.123363 7.729830 -30.508092 48.933149 7.224606 -5.635988 -15.174828 -7.067221 31.183396 0.000000 0.000000 0.000000 -18.244994 -75.642398 -17.465407 -0.112219 -1.431351 -0.249041 4.457189 -1.878152 -0.322543 6.248295 -3.511858 0.051659 0.000000 0.000000 0.000000 6.495798 -3.588150 0.086097 -0.859410 5.317874 1.107508 0.000000 0.000000 0.000000 7.033167 -3.277402 -0.566760 -1.326633 -13.967238 -12.725238 -27.746021 -61.496933 -25.200531 6.287669 -79.962869 5.892142 0.000000 0.000000 0.000000 5.823754 -3.739418 -0.225339 -1.001696 13.095971 17.784566 -6.159315 49.302679 27.890283 0.524075 65.137137 -0.495316 0.000000 0.000000 0.000000 
-2.981285 81.235580 2.981499 0.000000 0.000000 0.000000 -22.558996 -73.664751 -21.232893 -28.658999 17.310962 56.139896 23.894317 4.936143 -8.299681 15.155978 -1.933763 -40.456344 0.000000 0.000000 0.000000 -9.427956 -75.098429 -6.479779 -26.156910 8.554935 -30.982015 45.224294 5.950339 -5.202095 -13.912709 -7.945481 32.423294 0.000000 0.000000 0.000000 -14.570764 -75.465777 -13.646810 -0.143077 -1.258826 -0.208346 4.236823 -2.346475 -0.286173 6.185521 -4.608830 0.542612 0.000000 0.000000 0.000000 6.483773 -4.712538 0.584599 -1.032152 5.457024 1.234859 0.000000 0.000000 0.000000 7.376663 -4.304441 0.297588 -0.149869 -13.416968 -5.809698 -50.181557 -73.470917 -40.088907 11.336433 -83.803846 12.445135 0.000000 0.000000 0.000000 5.466021 -4.822125 0.103025 -1.120301 12.409258 19.409062 -8.168560 43.910142 28.466412 0.524075 65.137137 -0.495316 0.000000 0.000000 0.000000 
-3.145367 81.697762 3.742445 0.000000 0.000000 0.000000 -19.581164 -72.916374 -17.912012 -27.958667 18.885244 56.473070 23.577209 7.951479 -8.075217 13.233381 -1.721699 -40.856672 0.000000 0.000000 0.000000 -7.384988 -74.680974 -3.896475 -23.273320 9.541224 -31.501198 41.228750 4.420197 -4.626067 -12.403061 -8.148678 33.487147 0.000000 0.000000 0.000000 -10.933795 -75.516238 -9.824951 -0.084767 -0.637485 -0.068990 3.916497 -2.922052 -0.237164 6.000578 -5.716274 0.965357 0.000000 0.000000 0.000000 6.297452 -5.846578 1.019870 -1.132037 5.616550 1.455088 0.000000 0.000000 0.000000 7.453340 -5.255647 1.215947 0.941302 -11.308614 1.870014 -104.278861 -76.131037 -84.747785 26.423775 -87.015346 27.992518 0.000000 0.000000 0.000000 4.859653 -5.959577 0.413162 -1.218734 11.263678 20.930094 -10.306451 39.276846 27.851816 0.524075 65.137137 -0.495316 0.000000 0.000000 0.000000 
